<svg xmlns="http://www.w3.org/2000/svg" width="880" height="236" viewBox="0 0 880 236" role="img" aria-labelledby="t">
<title id="t">John. security researcher &amp; web reverse engineer. mostly JS deobfuscation and browser / request fingerprinting</title>
<style>@media (prefers-reduced-motion: reduce){.cipher,.caret{display:none}.plain{clip-path:none}}</style>
<defs><path id="r5c" d="M510 138L438 138L90-760L162-760L510 138Z"/><path id="r78" d="M153 0L61 0L253-262L66-516L162-516L240-407L302-321L306-321L366-407L443-516L535-516L346-263L540 0L444 0L357-121L298-203L294-203L237-121L153 0Z"/><path id="r37" d="M263 0L173 0L446-626L140-626L140-496L65-496L65-698L531-698L531-624L263 0Z"/><path id="r33" d="M193-402L270-402Q343-402 379.5-434.5Q416-467 416-518L416-518L416-525Q416-581 380.5-609Q345-637 288-637L288-637Q232-637 197.5-612.5Q163-588 141-548L141-548L78-596Q91-617 110-637.5Q129-658 154.5-674Q180-690 213.5-700Q247-710 290-710L290-710Q335-710 374-698.5Q413-687 442-664.5Q471-642 487.5-609Q504-576 504-534L504-534Q504-500 493.5-473Q483-446 464.5-426Q446-406 421-392Q396-378 368-371L368-371L368-367Q397-361 424-347.5Q451-334 472-312.5Q493-291 505.5-260.5Q518-230 518-191L518-191Q518-146 500.5-108.5Q483-71 451.5-44.5Q420-18 375.5-3Q331 12 277 12L277 12Q231 12 195.5 2Q160-8 132.5-25Q105-42 84.5-63Q64-84 48-107L48-107L111-155Q125-134 140-117Q155-100 174.5-87.5Q194-75 219-68Q244-61 277-61L277-61Q351-61 390.5-95Q430-129 430-192L430-192L430-200Q430-262 391.5-296Q353-330 276-330L276-330L193-330L193-402Z"/><path id="r36" d="M301 12L301 12Q246 12 202-6.5Q158-25 127.5-59.5Q97-94 80.5-144Q64-194 64-256L64-256Q64-334 87.5-402.5Q111-471 147.5-527.5Q184-584 229-627.5Q274-671 317-698L317-698L425-698Q368-657 323.5-618Q279-579 245-536.5Q211-494 188-445.5Q165-397 150-336L150-336L155-334Q180-377 221-405.5Q262-434 327-434L327-434Q373-434 411-419Q449-404 477-376Q505-348 520.5-308Q536-268 536-219L536-219Q536-168 519-125.5Q502-83 471.5-52.5Q441-22 397.5-5Q354 12 301 12ZM300-59L300-59Q372-59 411.5-98Q451-137 451-208L451-208L451-216Q451-287 411.5-326Q372-365 300-365L300-365Q228-365 188.5-326Q149-287 149-216L149-216L149-208Q149-137 188.5-98Q228-59 300-59Z"/><path id="r35" d="M501-698L501-625L189-625L169-358L176-358Q202-393 234-413.5Q266-434 322-434L322-434Q368-434 406.5-419.5Q445-405 473-377Q501-349 517-309.5Q533-270 533-219L533-219Q533-168 517-125.5Q501-83 470-52.5Q439-22 395-5Q351 12 295 12L295 12Q251 12 216.5 2Q182-8 155.5-25Q129-42 109-63Q89-84 73-107L73-107L136-155Q150-134 164.5-117Q179-100 198-87.5Q217-75 241-68Q265-61 297-61L297-61Q369-61 407.5-100Q446-139 446-208L446-208L446-216Q446-285 407-324Q368-363 295-363L295-363Q245-363 217.5-346Q190-329 167-304L167-304L96-314L121-698L501-698Z"/><path id="r32" d="M537-73L537 0L71 0L71-86L304-296Q355-342 388-390.5Q421-439 421-493L421-493L421-505Q421-568 388-602.5Q355-637 290-637L290-637Q226-637 191.5-604.5Q157-572 140-518L140-518L65-546Q75-577 92.5-606.5Q110-636 137-659Q164-682 202.5-696Q241-710 292-710L292-710Q344-710 384.5-695Q425-680 452.5-653Q480-626 494.5-589Q509-552 509-508L509-508Q509-468 497.5-433Q486-398 465.5-366Q445-334 416.5-303.5Q388-273 353-243L353-243L158-73L537-73Z"/><path id="r39" d="M536-442L536-442Q536-364 512.5-295.5Q489-227 452-170.5Q415-114 370.5-70.5Q326-27 283 0L283 0L175 0Q232-41 276.5-80Q321-119 355-161.5Q389-204 412-252.5Q435-301 450-362L450-362L445-364Q419-321 378.5-292.5Q338-264 273-264L273-264Q227-264 188.5-279Q150-294 122.5-322Q95-350 79.5-389.5Q64-429 64-479L64-479Q64-530 80.5-572.5Q97-615 128-645.5Q159-676 202.5-693Q246-710 299-710L299-710Q354-710 398-691.5Q442-673 472.5-638.5Q503-604 519.5-554Q536-504 536-442ZM300-333L300-333Q372-333 411.5-372Q451-411 451-482L451-482L451-490Q451-561 411.5-600Q372-639 300-639L300-639Q228-639 188.5-600Q149-561 149-490L149-490L149-482Q149-411 188.5-372Q228-333 300-333Z"/><path id="r34" d="M458 0L378 0L378-137L34-137L34-211L336-698L458-698L458-206L562-206L562-137L458-137L458 0ZM374-633L109-206L378-206L378-633L374-633Z"/><path id="r30" d="M300 12L300 12Q236 12 190-12.5Q144-37 114-83Q84-129 70-196Q56-263 56-349L56-349Q56-434 70-501.5Q84-569 114-615Q144-661 190-685.5Q236-710 300-710L300-710Q364-710 410-685.5Q456-661 486-615Q516-569 530-501.5Q544-434 544-349L544-349Q544-263 530-196Q516-129 486-83Q456-37 410-12.5Q364 12 300 12ZM300-61L300-61Q342-61 372-77.5Q402-94 420.5-124Q439-154 448-196.5Q457-239 457-292L457-292L457-406Q457-458 448-501Q439-544 420.5-574Q402-604 372-620.5Q342-637 300-637L300-637Q258-637 228-620.5Q198-604 179.5-574Q161-544 152-501Q143-458 143-406L143-406L143-292Q143-239 152-196.5Q161-154 179.5-124Q198-94 228-77.5Q258-61 300-61ZM300-290L300-290Q265-290 251.5-304Q238-318 238-338L238-338L238-360Q238-380 251.5-394Q265-408 300-408L300-408Q335-408 348.5-394Q362-380 362-360L362-360L362-338Q362-318 348.5-304Q335-290 300-290Z"/><path id="r73" d="M306 12L306 12Q225 12 166.5-15.5Q108-43 67-89L67-89L121-136Q158-97 202-76Q246-55 308-55L308-55Q368-55 406.5-76.5Q445-98 445-144L445-144Q445-164 437.5-177.5Q430-191 417-199Q404-207 388-211.5Q372-216 354-219L354-219L273-231Q246-235 214.5-242Q183-249 157-264.5Q131-280 113.5-306Q96-332 96-374L96-374Q96-413 111.5-441.5Q127-470 155-489.5Q183-509 221-518.5Q259-528 304-528L304-528Q374-528 425.5-506Q477-484 514-445L514-445L462-396Q453-407 439.5-418.5Q426-430 406.5-439.5Q387-449 361-455Q335-461 301-461L301-461Q240-461 207.5-440Q175-419 175-379L175-379Q175-359 182.5-345.5Q190-332 203-324Q216-316 232.5-311.5Q249-307 266-304L266-304L347-292Q375-288 406-281Q437-274 463-258.5Q489-243 506.5-217Q524-191 524-149L524-149Q524-72 464.5-30Q405 12 306 12Z"/><path id="r65" d="M309 12L309 12Q253 12 208.5-7Q164-26 132.5-61.5Q101-97 84-146.5Q67-196 67-257L67-257Q67-319 84.5-369Q102-419 133-454.5Q164-490 207.5-509Q251-528 304-528L304-528Q356-528 398.5-509Q441-490 471-456.5Q501-423 517-377Q533-331 533-276L533-276L533-238L151-238L151-214Q151-180 162-151Q173-122 193.5-101Q214-80 243.5-68.5Q273-57 309-57L309-57Q361-57 399-81Q437-105 457-147L457-147L516-107Q493-55 439.5-21.5Q386 12 309 12ZM304-462L304-462Q271-462 243-450Q215-438 194.5-417Q174-396 162.5-367.5Q151-339 151-305L151-305L151-298L447-298L447-309Q447-343 436.5-371Q426-399 407.5-419.5Q389-440 362.5-451Q336-462 304-462Z"/><path id="r63" d="M318 12L318 12Q262 12 218.5-7.5Q175-27 145-62Q115-97 99.5-147Q84-197 84-258L84-258Q84-319 100-369Q116-419 146-454.5Q176-490 219-509Q262-528 317-528L317-528Q392-528 439-495Q486-462 508-409L508-409L444-375Q430-415 397.5-437Q365-459 317-459L317-459Q282-459 254.5-447.5Q227-436 208-415Q189-394 179.5-365Q170-336 170-302L170-302L170-214Q170-180 179.5-151Q189-122 208-101Q227-80 255-68.5Q283-57 319-57L319-57Q371-57 405-81Q439-105 459-147L459-147L516-108Q493-56 444.5-22Q396 12 318 12Z"/><path id="r75" d="M422 0L422-84L418-84Q410-65 398-47.5Q386-30 368.5-17Q351-4 327 4Q303 12 271 12L271 12Q190 12 141-39.5Q92-91 92-185L92-185L92-516L172-516L172-199Q172-128 203-93.5Q234-59 294-59L294-59Q318-59 341-65Q364-71 382-83Q400-95 411-113.5Q422-132 422-158L422-158L422-516L502-516L502 0L422 0Z"/><path id="r72" d="M77 0L77-68L228-68L228-448L77-448L77-516L308-516L308-386L313-386Q329-447 373.5-481.5Q418-516 487-516L487-516L559-516L559-436L462-436Q393-436 350.5-396Q308-356 308-291L308-291L308-68L508-68L508 0L77 0Z"/><path id="r69" d="M332-630L332-630Q297-630 283-644.5Q269-659 269-681L269-681L269-697Q269-719 283-733.5Q297-748 332-748L332-748Q367-748 381-733.5Q395-719 395-697L395-697L395-681Q395-659 381-644.5Q367-630 332-630ZM106 0L106-68L292-68L292-448L106-448L106-516L372-516L372-68L546-68L546 0L106 0Z"/><path id="r74" d="M526 0L325 0Q266 0 238.5-33Q211-66 211-118L211-118L211-448L39-448L39-516L167-516Q193-516 203.5-526.5Q214-537 214-563L214-563L214-698L291-698L291-516L526-516L526-448L291-448L291-68L526-68L526 0Z"/><path id="r79" d="M380-300L467-516L547-516L291 113Q282 135 271 151.5Q260 168 245 178.5Q230 189 209 194.5Q188 200 159 200L159 200L83 200L83 132L203 132L261-10L53-516L135-516L222-300L299-104L303-104L380-300Z"/><path id="r61" d="M550 0L495 0Q448 0 428-24Q408-48 403-84L403-84L398-84Q381-39 343.5-13.5Q306 12 243 12L243 12Q162 12 114-30Q66-72 66-145L66-145Q66-217 118.5-256Q171-295 288-295L288-295L398-295L398-346Q398-403 366-431.5Q334-460 275-460L275-460Q223-460 190-439.5Q157-419 137-384L137-384L83-424Q93-444 110-463Q127-482 152-496.5Q177-511 209-519.5Q241-528 280-528L280-528Q371-528 424.5-482Q478-436 478-354L478-354L478-70L550-70L550 0ZM257-55L257-55Q288-55 313.5-62.5Q339-70 358-82.5Q377-95 387.5-112.5Q398-130 398-150L398-150L398-235L288-235Q216-235 183-215Q150-195 150-157L150-157L150-136Q150-96 178.5-75.5Q207-55 257-55Z"/><path id="r68" d="M98 0L98-740L178-740L178-432L182-432Q190-451 202-468.5Q214-486 231.5-499Q249-512 273-520Q297-528 329-528L329-528Q410-528 459-476.5Q508-425 508-331L508-331L508 0L428 0L428-317Q428-388 397-422.5Q366-457 306-457L306-457Q282-457 259-451Q236-445 218-433Q200-421 189-402Q178-383 178-358L178-358L178 0L98 0Z"/><path id="r26" d="M217 12L217 12Q171 12 135.5-3Q100-18 75.5-44.5Q51-71 38-106Q25-141 25-181L25-181Q25-207 31-235Q37-263 52-289.5Q67-316 91.5-340.5Q116-365 154-384L154-384Q126-420 107.5-458Q89-496 89-541L89-541Q89-579 103.5-610Q118-641 142.5-663.5Q167-686 200-698Q233-710 270-710L270-710Q303-710 330.5-700.5Q358-691 379-676Q400-661 414.5-642Q429-623 436-604L436-604L370-570Q357-601 331-621.5Q305-642 266-642L266-642Q221-642 194.5-614.5Q168-587 168-544L168-544L168-536Q168-520 172-505Q176-490 184.5-473.5Q193-457 206.5-438Q220-419 239-395L239-395L329-284L402-194L407-194Q414-233 416-283Q418-333 420-381L420-381L561-381L561-314L486-314Q483-290 480-269Q477-248 473-228Q469-208 464-187.5Q459-167 450-144L450-144L572 0L477 0L390-103L385-103Q371-51 328-19.5Q285 12 217 12ZM238-59L238-59Q281-59 314-77Q347-95 366-127L366-127L192-337Q146-308 127-271.5Q108-235 108-192L108-192L108-177Q108-123 144-91Q180-59 238-59Z"/><path id="r77" d="M109 0L30-516L101-516L160-70L169-70L257-516L345-516L433-70L442-70L501-516L570-516L491 0L387 0L305-432L297-432L213 0L109 0Z"/><path id="r62" d="M95 0L95-740L175-740L175-432L179-432Q229-528 338-528L338-528Q433-528 486.5-457Q540-386 540-258L540-258Q540-130 486.5-59Q433 12 338 12L338 12Q229 12 179-84L179-84L175-84L175 0L95 0ZM307-59L307-59Q377-59 415.5-101.5Q454-144 454-214L454-214L454-302Q454-372 415.5-414.5Q377-457 307-457L307-457Q280-457 256-450Q232-443 214-429.5Q196-416 185.5-396.5Q175-377 175-351L175-351L175-165Q175-139 185.5-119.5Q196-100 214-86.5Q232-73 256-66Q280-59 307-59Z"/><path id="r76" d="M351 0L249 0L64-516L145-516L219-300L299-67L303-67L383-300L457-516L536-516L351 0Z"/><path id="r6e" d="M178 0L98 0L98-516L178-516L178-432L182-432Q190-451 202-468.5Q214-486 231.5-499Q249-512 273-520Q297-528 329-528L329-528Q410-528 459-476.5Q508-425 508-331L508-331L508 0L428 0L428-317Q428-388 397-422.5Q366-457 306-457L306-457Q282-457 259-451Q236-445 218-433Q200-421 189-402Q178-383 178-358L178-358L178 0Z"/><path id="r67" d="M561 59L561 59Q561 137 496 174.5Q431 212 301 212L301 212Q176 212 121.5 179Q67 146 67 84L67 84Q67 42 89 19Q111-4 151-15L151-15L151-27Q129-38 117-55Q105-72 105-98L105-98Q105-138 131.5-158Q158-178 198-188L198-188L198-192Q150-213 123.5-254Q97-295 97-350L97-350Q97-389 111-422Q125-455 151.5-478.5Q178-502 215-515Q252-528 297-528L297-528Q355-528 399-507L399-507L399-516Q399-546 413-566Q427-586 461-586L461-586L556-586L556-516L440-516L440-481Q468-457 483-424Q498-391 498-350L498-350Q498-311 483.5-278Q469-245 443-221.5Q417-198 379.5-185Q342-172 297-172L297-172Q284-172 272-173Q260-174 248-176L248-176Q236-174 223-169.5Q210-165 199-157.5Q188-150 181-140Q174-130 174-117L174-117Q174-94 197-86.5Q220-79 257-79L257-79L371-79Q471-79 516-41.5Q561-4 561 59ZM486 63L486 63Q486 32 461 13.5Q436-5 374-5L374-5L195-5Q143 16 143 65L143 65Q143 99 170 123.5Q197 148 260 148L260 148L338 148Q408 148 447 126.5Q486 105 486 63ZM297-234L297-234Q357-234 385.5-262Q414-290 414-336L414-336L414-365Q414-411 385.5-438.5Q357-466 297-466L297-466Q237-466 209-438.5Q181-411 181-365L181-365L181-336Q181-290 209-262Q237-234 297-234Z"/><path id="r64" d="M425 0L425-84L421-84Q371 12 262 12L262 12Q167 12 113.5-59Q60-130 60-258L60-258Q60-386 113.5-457Q167-528 262-528L262-528Q371-528 421-432L421-432L425-432L425-740L505-740L505 0L425 0ZM293-59L293-59Q320-59 344-66Q368-73 386-86.5Q404-100 414.5-119.5Q425-139 425-165L425-165L425-351Q425-377 414.5-396.5Q404-416 386-429.5Q368-443 344-450Q320-457 293-457L293-457Q223-457 184.5-414.5Q146-372 146-302L146-302L146-214Q146-144 184.5-101.5Q223-59 293-59Z"/><path id="r66" d="M83 0L83-68L257-68L257-448L73-448L73-516L257-516L257-622Q257-674 284.5-707Q312-740 371-740L371-740L544-740L544-672L337-672L337-516L544-516L544-448L337-448L337-68L521-68L521 0L83 0Z"/><path id="r6d" d="M128 0L54 0L54-516L128-516L128-456L132-456Q144-486 166-507Q188-528 231-528L231-528Q276-528 298-505.5Q320-483 325-447L325-447L328-447Q342-482 368-505Q394-528 440-528L440-528Q503-528 524.5-484Q546-440 546-358L546-358L546 0L472 0L472-345Q472-411 458.5-436.5Q445-462 409-462L409-462Q377-462 357-441.5Q337-421 337-379L337-379L337 0L263 0L263-345Q263-411 249.5-436.5Q236-462 201-462L201-462Q169-462 148.5-441.5Q128-421 128-379L128-379L128 0Z"/><path id="r6f" d="M300 12L300 12Q246 12 202.5-7Q159-26 128.5-61.5Q98-97 82-146.5Q66-196 66-258L66-258Q66-319 82-369Q98-419 128.5-454.5Q159-490 202.5-509Q246-528 300-528L300-528Q354-528 397.5-509Q441-490 471.5-454.5Q502-419 518-369Q534-319 534-258L534-258Q534-196 518-146.5Q502-97 471.5-61.5Q441-26 397.5-7Q354 12 300 12ZM300-57L300-57Q367-57 408-97Q449-137 449-221L449-221L449-295Q449-379 408-419Q367-459 300-459L300-459Q233-459 192-419Q151-379 151-295L151-295L151-221Q151-137 192-97Q233-57 300-57Z"/><path id="r6c" d="M80 0L80-68L260-68L260-672L80-672L80-740L340-740L340-68L520-68L520 0L80 0Z"/><path id="r4a" d="M144-698L480-698L480-181Q480-137 465-101Q450-65 422.5-40Q395-15 357-1.5Q319 12 274 12L274 12Q194 12 142-29.5Q90-71 74-146L74-146L154-163Q159-142 167.5-123.5Q176-105 190.5-91.5Q205-78 226-70Q247-62 276-62L276-62Q333-62 364.5-94.5Q396-127 396-196L396-196L396-625L144-625L144-698Z"/><path id="r53" d="M298 12L298 12Q204 12 144-22.5Q84-57 45-111L45-111L106-161Q147-110 192.5-85Q238-60 301-60L301-60Q377-60 417-95Q457-130 457-193L457-193Q457-244 428-272.5Q399-301 327-313L327-313L249-326Q198-335 163.5-353Q129-371 108-396.5Q87-422 78-452.5Q69-483 69-516L69-516Q69-612 132-661Q195-710 302-710L302-710Q386-710 443.5-682Q501-654 536-603L536-603L477-552Q448-590 407-614Q366-638 301-638L301-638Q230-638 192-608Q154-578 154-518L154-518Q154-471 182.5-441.5Q211-412 285-399L285-399L360-386Q411-377 446-359Q481-341 502.5-316Q524-291 533-260Q542-229 542-195L542-195Q542-98 478.5-43Q415 12 298 12Z"/><path id="r2f" d="M162 138L90 138L438-760L510-760L162 138Z"/><path id="r71" d="M425 200L425-84L421-84Q371 12 262 12L262 12Q167 12 113.5-59Q60-130 60-258L60-258Q60-386 113.5-457Q167-528 262-528L262-528Q371-528 421-432L421-432L425-432L425-516L505-516L505 200L425 200ZM293-59L293-59Q320-59 344-66Q368-73 386-86.5Q404-100 414.5-119.5Q425-139 425-165L425-165L425-351Q425-377 414.5-396.5Q404-416 386-429.5Q368-443 344-450Q320-457 293-457L293-457Q223-457 184.5-414.5Q146-372 146-302L146-302L146-214Q146-144 184.5-101.5Q223-59 293-59Z"/><path id="r70" d="M95 200L95-516L175-516L175-432L179-432Q229-528 338-528L338-528Q433-528 486.5-457Q540-386 540-258L540-258Q540-130 486.5-59Q433 12 338 12L338 12Q229 12 179-84L179-84L175-84L175 200L95 200ZM307-59L307-59Q377-59 415.5-101.5Q454-144 454-214L454-214L454-302Q454-372 415.5-414.5Q377-457 307-457L307-457Q280-457 256-450Q232-443 214-429.5Q196-416 185.5-396.5Q175-377 175-351L175-351L175-165Q175-139 185.5-119.5Q196-100 214-86.5Q232-73 256-66Q280-59 307-59Z"/><path id="s4a" d="M134-698L502-698L502-191Q502-144 486-106.5Q470-69 440.5-43Q411-17 369.5-2.5Q328 12 277 12L277 12Q178 12 121.5-38Q65-88 49-171L49-171L172-197Q181-153 204.5-124.5Q228-96 277-96L277-96Q322-96 346-122.5Q370-149 370-206L370-206L370-590L134-590L134-698Z"/><path id="s6f" d="M300 12L300 12Q241 12 194.5-7Q148-26 115.5-61Q83-96 65.5-146Q48-196 48-258L48-258Q48-320 65.5-370Q83-420 115.5-455Q148-490 194.5-509Q241-528 300-528L300-528Q358-528 405-509Q452-490 484.5-455Q517-420 534.5-370Q552-320 552-258L552-258Q552-196 534.5-146Q517-96 484.5-61Q452-26 405-7Q358 12 300 12ZM300-86L300-86Q355-86 387-119.5Q419-153 419-218L419-218L419-298Q419-363 387-396.5Q355-430 300-430L300-430Q245-430 213-396.5Q181-363 181-298L181-298L181-218Q181-153 213-119.5Q245-86 300-86Z"/><path id="s68" d="M75 0L75-740L203-740L203-425L208-425Q225-467 260.5-497.5Q296-528 359-528L359-528Q435-528 482.5-477.5Q530-427 530-333L530-333L530 0L402 0L402-315Q402-427 305-427L305-427Q285-427 267-422Q249-417 234.5-406.5Q220-396 211.5-381Q203-366 203-345L203-345L203 0L75 0Z"/><path id="s6e" d="M203 0L75 0L75-516L203-516L203-425L208-425Q225-467 260.5-497.5Q296-528 359-528L359-528Q435-528 482.5-477.5Q530-427 530-333L530-333L530 0L402 0L402-315Q402-427 305-427L305-427Q285-427 267-422Q249-417 234.5-406.5Q220-396 211.5-381Q203-366 203-345L203-345L203 0Z"/><clipPath id="p1"><rect x="48" y="128" width="0" height="30.8"><animate attributeName="width" calcMode="discrete" values="0;13.2;26.4;39.6;52.8;66;79.2;92.4;105.6;118.8;132;145.2;158.4;171.6;184.8;198;211.2;224.4;237.6;250.8;264;277.2;290.4;303.6;316.8;330;343.2;356.4;369.6;382.8;396;409.2;422.4;435.6;448.8;462;475.2;488.4;501.6;514.8;528;541.2;554.4" begin="0.15s" dur="0.65s" fill="freeze"/></rect></clipPath><clipPath id="c1"><rect x="48" y="128" width="578.4" height="30.8"><animate attributeName="x" calcMode="discrete" values="48;61.2;74.4;87.6;100.8;114;127.2;140.4;153.6;166.8;180;193.2;206.4;219.6;232.8;246;259.2;272.4;285.6;298.8;312;325.2;338.4;351.6;364.8;378;391.2;404.4;417.6;430.8;444;457.2;470.4;483.6;496.8;510;523.2;536.4;549.6;562.8;576;589.2;602.4" begin="0.15s" dur="0.65s" fill="freeze"/></rect></clipPath><clipPath id="p2"><rect x="48" y="173" width="0" height="21"><animate attributeName="width" calcMode="discrete" values="0;9;18;27;36;45;54;63;72;81;90;99;108;117;126;135;144;153;162;171;180;189;198;207;216;225;234;243;252;261;270;279;288;297;306;315;324;333;342;351;360;369;378;387;396;405;414;423;432;441;450;459;468;477;486;495;504;513;522;531;540" begin="0.82s" dur="0.61s" fill="freeze"/></rect></clipPath><clipPath id="c2"><rect x="48" y="173" width="564" height="21"><animate attributeName="x" calcMode="discrete" values="48;57;66;75;84;93;102;111;120;129;138;147;156;165;174;183;192;201;210;219;228;237;246;255;264;273;282;291;300;309;318;327;336;345;354;363;372;381;390;399;408;417;426;435;444;453;462;471;480;489;498;507;516;525;534;543;552;561;570;579;588" begin="0.82s" dur="0.61s" fill="freeze"/></rect></clipPath></defs>
<rect x="0.5" y="0.5" width="879" height="235" rx="14" fill="#f5f7fb" stroke="#dbe2ec"/>
<g fill="#0e1a2b"><g transform="translate(45 96) scale(0.06)"><use href="#s4a" x="0"/><use href="#s6f" x="600"/><use href="#s68" x="1200"/><use href="#s6e" x="1800"/></g></g>
<g class="cipher" clip-path="url(#c1)" fill="#b3bfd0"><g transform="translate(48 150) scale(0.022)"><use href="#r5c" x="0"/><use href="#r78" x="600"/><use href="#r37" x="1200"/><use href="#r33" x="1800"/><use href="#r5c" x="2400"/><use href="#r78" x="3000"/><use href="#r36" x="3600"/><use href="#r35" x="4200"/><use href="#r5c" x="4800"/><use href="#r78" x="5400"/><use href="#r36" x="6000"/><use href="#r33" x="6600"/><use href="#r5c" x="7200"/><use href="#r78" x="7800"/><use href="#r37" x="8400"/><use href="#r35" x="9000"/><use href="#r5c" x="9600"/><use href="#r78" x="10200"/><use href="#r37" x="10800"/><use href="#r32" x="11400"/><use href="#r5c" x="12000"/><use href="#r78" x="12600"/><use href="#r36" x="13200"/><use href="#r39" x="13800"/><use href="#r5c" x="14400"/><use href="#r78" x="15000"/><use href="#r37" x="15600"/><use href="#r34" x="16200"/><use href="#r5c" x="16800"/><use href="#r78" x="17400"/><use href="#r37" x="18000"/><use href="#r39" x="18600"/><use href="#r5c" x="19200"/><use href="#r78" x="19800"/><use href="#r32" x="20400"/><use href="#r30" x="21000"/><use href="#r5c" x="21600"/><use href="#r78" x="22200"/><use href="#r37" x="22800"/><use href="#r32" x="23400"/><use href="#r5c" x="24000"/><use href="#r78" x="24600"/></g></g>
<g class="plain" clip-path="url(#p1)" fill="#22324b"><g transform="translate(48 150) scale(0.022)"><use href="#r73" x="0"/><use href="#r65" x="600"/><use href="#r63" x="1200"/><use href="#r75" x="1800"/><use href="#r72" x="2400"/><use href="#r69" x="3000"/><use href="#r74" x="3600"/><use href="#r79" x="4200"/><use href="#r72" x="5400"/><use href="#r65" x="6000"/><use href="#r73" x="6600"/><use href="#r65" x="7200"/><use href="#r61" x="7800"/><use href="#r72" x="8400"/><use href="#r63" x="9000"/><use href="#r68" x="9600"/><use href="#r65" x="10200"/><use href="#r72" x="10800"/><use href="#r26" x="12000"/><use href="#r77" x="13200"/><use href="#r65" x="13800"/><use href="#r62" x="14400"/><use href="#r72" x="15600"/><use href="#r65" x="16200"/><use href="#r76" x="16800"/><use href="#r65" x="17400"/><use href="#r72" x="18000"/><use href="#r73" x="18600"/><use href="#r65" x="19200"/><use href="#r65" x="20400"/><use href="#r6e" x="21000"/><use href="#r67" x="21600"/><use href="#r69" x="22200"/><use href="#r6e" x="22800"/><use href="#r65" x="23400"/><use href="#r65" x="24000"/><use href="#r72" x="24600"/></g></g>
<g class="cipher" clip-path="url(#c2)" fill="#b3bfd0"><g transform="translate(48 188) scale(0.015)"><use href="#r5c" x="0"/><use href="#r78" x="600"/><use href="#r36" x="1200"/><use href="#r64" x="1800"/><use href="#r5c" x="2400"/><use href="#r78" x="3000"/><use href="#r36" x="3600"/><use href="#r66" x="4200"/><use href="#r5c" x="4800"/><use href="#r78" x="5400"/><use href="#r37" x="6000"/><use href="#r33" x="6600"/><use href="#r5c" x="7200"/><use href="#r78" x="7800"/><use href="#r37" x="8400"/><use href="#r34" x="9000"/><use href="#r5c" x="9600"/><use href="#r78" x="10200"/><use href="#r36" x="10800"/><use href="#r63" x="11400"/><use href="#r5c" x="12000"/><use href="#r78" x="12600"/><use href="#r37" x="13200"/><use href="#r39" x="13800"/><use href="#r5c" x="14400"/><use href="#r78" x="15000"/><use href="#r32" x="15600"/><use href="#r30" x="16200"/><use href="#r5c" x="16800"/><use href="#r78" x="17400"/><use href="#r34" x="18000"/><use href="#r61" x="18600"/><use href="#r5c" x="19200"/><use href="#r78" x="19800"/><use href="#r35" x="20400"/><use href="#r33" x="21000"/><use href="#r5c" x="21600"/><use href="#r78" x="22200"/><use href="#r32" x="22800"/><use href="#r30" x="23400"/><use href="#r5c" x="24000"/><use href="#r78" x="24600"/><use href="#r36" x="25200"/><use href="#r34" x="25800"/><use href="#r5c" x="26400"/><use href="#r78" x="27000"/><use href="#r36" x="27600"/><use href="#r35" x="28200"/><use href="#r5c" x="28800"/><use href="#r78" x="29400"/><use href="#r36" x="30000"/><use href="#r66" x="30600"/><use href="#r5c" x="31200"/><use href="#r78" x="31800"/><use href="#r36" x="32400"/><use href="#r32" x="33000"/><use href="#r5c" x="33600"/><use href="#r78" x="34200"/><use href="#r36" x="34800"/><use href="#r36" x="35400"/></g></g>
<g class="plain" clip-path="url(#p2)" fill="#52627c"><g transform="translate(48 188) scale(0.015)"><use href="#r6d" x="0"/><use href="#r6f" x="600"/><use href="#r73" x="1200"/><use href="#r74" x="1800"/><use href="#r6c" x="2400"/><use href="#r79" x="3000"/><use href="#r4a" x="4200"/><use href="#r53" x="4800"/><use href="#r64" x="6000"/><use href="#r65" x="6600"/><use href="#r6f" x="7200"/><use href="#r62" x="7800"/><use href="#r66" x="8400"/><use href="#r75" x="9000"/><use href="#r73" x="9600"/><use href="#r63" x="10200"/><use href="#r61" x="10800"/><use href="#r74" x="11400"/><use href="#r69" x="12000"/><use href="#r6f" x="12600"/><use href="#r6e" x="13200"/><use href="#r61" x="14400"/><use href="#r6e" x="15000"/><use href="#r64" x="15600"/><use href="#r62" x="16800"/><use href="#r72" x="17400"/><use href="#r6f" x="18000"/><use href="#r77" x="18600"/><use href="#r73" x="19200"/><use href="#r65" x="19800"/><use href="#r72" x="20400"/><use href="#r2f" x="21600"/><use href="#r72" x="22800"/><use href="#r65" x="23400"/><use href="#r71" x="24000"/><use href="#r75" x="24600"/><use href="#r65" x="25200"/><use href="#r73" x="25800"/><use href="#r74" x="26400"/><use href="#r66" x="27600"/><use href="#r69" x="28200"/><use href="#r6e" x="28800"/><use href="#r67" x="29400"/><use href="#r65" x="30000"/><use href="#r72" x="30600"/><use href="#r70" x="31200"/><use href="#r72" x="31800"/><use href="#r69" x="32400"/><use href="#r6e" x="33000"/><use href="#r74" x="33600"/><use href="#r69" x="34200"/><use href="#r6e" x="34800"/><use href="#r67" x="35400"/></g></g>
<rect class="caret" x="47" y="131.96" width="2.5" height="22.44" fill="#c07f00" opacity="1"><animateTransform attributeName="transform" type="translate" calcMode="discrete" values="0 0;13.2 0;26.4 0;39.6 0;52.8 0;66 0;79.2 0;92.4 0;105.6 0;118.8 0;132 0;145.2 0;158.4 0;171.6 0;184.8 0;198 0;211.2 0;224.4 0;237.6 0;250.8 0;264 0;277.2 0;290.4 0;303.6 0;316.8 0;330 0;343.2 0;356.4 0;369.6 0;382.8 0;396 0;409.2 0;422.4 0;435.6 0;448.8 0;462 0;475.2 0;488.4 0;501.6 0;514.8 0;528 0;541.2 0;554.4 0" begin="0.15s" dur="0.65s" fill="freeze"/><set attributeName="opacity" to="0" begin="0.8s" fill="freeze"/></rect>
<rect class="caret" x="47" y="175.7" width="2.5" height="15.3" fill="#c07f00" opacity="0"><animateTransform attributeName="transform" type="translate" calcMode="discrete" values="0 0;9 0;18 0;27 0;36 0;45 0;54 0;63 0;72 0;81 0;90 0;99 0;108 0;117 0;126 0;135 0;144 0;153 0;162 0;171 0;180 0;189 0;198 0;207 0;216 0;225 0;234 0;243 0;252 0;261 0;270 0;279 0;288 0;297 0;306 0;315 0;324 0;333 0;342 0;351 0;360 0;369 0;378 0;387 0;396 0;405 0;414 0;423 0;432 0;441 0;450 0;459 0;468 0;477 0;486 0;495 0;504 0;513 0;522 0;531 0;540 0" begin="0.82s" dur="0.61s" fill="freeze"/><set attributeName="opacity" to="1" begin="0.82s" fill="freeze"/><animate attributeName="opacity" values="1;0;1" dur="1s" begin="1.73s" repeatCount="3" fill="freeze"/></rect>
</svg>
